<svg width="56" height="54" viewBox="0 0 56 54" fill="none" xmlns="http://www.w3.org/2000/svg">
<path d="M18.5796 43.4192L17.346 40.2576L20.7759 38.9192L16.4582 27.8534C15.6049 25.6666 15.5639 23.4513 16.3351 21.2074C17.096 18.9372 18.517 17.0925 20.5981 15.6734L20.1663 14.5668C19.9093 13.9081 19.9363 13.26 20.2475 12.6225C20.5769 11.9475 21.0989 11.4706 21.8135 11.1918C22.5281 10.913 23.2209 10.9159 23.8918 11.2005C24.5811 11.4477 25.0542 11.9006 25.3113 12.5592L25.743 13.6658C28.2353 13.3005 30.5301 13.6953 32.6275 14.8502C34.7146 15.9788 36.1848 17.6365 37.0381 19.8233L41.3559 30.8891L44.7859 29.5507L46.0195 32.7124L18.5796 43.4192ZM34.15 42.8083C33.2068 43.1763 32.2739 43.1912 31.3515 42.8529C30.4474 42.477 29.8257 41.8544 29.4864 40.985L36.3464 38.3083C36.6856 39.1777 36.6356 40.0624 36.1964 40.9624C35.7754 41.8249 35.0933 42.4402 34.15 42.8083ZM24.2059 37.5808L37.9259 32.2274L33.6081 21.1617C32.9296 19.4227 31.677 18.1962 29.8505 17.4821C28.0239 16.768 26.1673 16.779 24.2808 17.5151C22.3943 18.2512 21.021 19.5005 20.1607 21.263C19.3005 23.0255 19.2096 24.7762 19.8882 26.5151L24.2059 37.5808Z" fill="#FEF7FF"/>
</svg>
